<svg xmlns="http://www.w3.org/2000/svg" width="24" height="24" viewBox="0 0 24 24" fill="none"><path fill-rule="evenodd" clip-rule="evenodd" d="M12 1.7a6.6 6.6 0 0 0-6.6 6.6v1.9c0 .9.18 1.77.5 2.56l-2.2 5.4a1.7 1.7 0 0 0 1.05 2.26l2.3.72.5 1.6a1.7 1.7 0 0 0 2.2 1.1l2.25-.82 2.25.82a1.7 1.7 0 0 0 2.2-1.1l.5-1.6 2.3-.72a1.7 1.7 0 0 0 1.05-2.26l-2.2-5.4c.32-.79.5-1.66.5-2.56V8.3A6.6 6.6 0 0 0 12 1.7Zm0 2.3a4.3 4.3 0 0 1 4.3 4.3v1.9A4.3 4.3 0 0 1 12 14.5a4.3 4.3 0 0 1-4.3-4.3V8.3A4.3 4.3 0 0 1 12 4Zm-2.5 4.5a1.15 1.15 0 0 0 0 2.3h5a1.15 1.15 0 0 0 0-2.3h-5Z" fill="#111111"/></svg>
